<svg width="48" height="48" viewBox="0 0 48 48" fill="none" xmlns="http://www.w3.org/2000/svg">
<path d="M24 48C37.2548 48 48 37.2548 48 24C48 10.7452 37.2548 0 24 0C10.7452 0 0 10.7452 0 24C0 37.2548 10.7452 48 24 48Z" fill="white"/>
<path d="M24.4969 19.665C22.3853 19.665 20.662 21.3883 20.662 23.5C20.662 25.6117 22.3853 27.335 24.4969 27.335C26.6085 27.335 28.3318 25.6117 28.3318 23.5C28.3318 21.3883 26.6085 19.665 24.4969 19.665ZM35.9987 23.5C35.9987 21.9119 36.0131 20.3382 35.9239 18.753C35.8347 16.9118 35.4147 15.2777 34.0683 13.9313C32.7191 12.582 31.0879 12.1648 29.2467 12.0757C27.6586 11.9865 26.085 12.0009 24.4998 12.0009C22.9117 12.0009 21.3381 11.9865 19.7529 12.0757C17.9117 12.1648 16.2776 12.5849 14.9312 13.9313C13.582 15.2806 13.1648 16.9118 13.0757 18.753C12.9865 20.3411 13.0009 21.9148 13.0009 23.5C13.0009 25.0852 12.9865 26.6618 13.0757 28.247C13.1648 30.0882 13.5849 31.7223 14.9312 33.0687C16.2805 34.418 17.9117 34.8352 19.7529 34.9243C21.341 35.0135 22.9146 34.9991 24.4998 34.9991C26.0878 34.9991 27.6615 35.0135 29.2467 34.9243C31.0879 34.8352 32.7219 34.4151 34.0683 33.0687C35.4176 31.7194 35.8347 30.0882 35.9239 28.247C36.016 26.6618 35.9987 25.0881 35.9987 23.5ZM24.4969 29.4006C21.2316 29.4006 18.5964 26.7653 18.5964 23.5C18.5964 20.2347 21.2316 17.5994 24.4969 17.5994C27.7622 17.5994 30.3974 20.2347 30.3974 23.5C30.3974 26.7653 27.7622 29.4006 24.4969 29.4006ZM30.6391 18.7358C29.8767 18.7358 29.261 18.1201 29.261 17.3577C29.261 16.5953 29.8767 15.9797 30.6391 15.9797C31.4014 15.9797 32.0171 16.5953 32.0171 17.3577C32.0173 17.5388 31.9818 17.7181 31.9127 17.8854C31.8435 18.0526 31.742 18.2047 31.614 18.3327C31.486 18.4607 31.334 18.5622 31.1667 18.6313C30.9994 18.7005 30.8201 18.736 30.6391 18.7358Z" fill="#F178B6"/>
</svg>
