<svg width="48" height="48" viewBox="0 0 48 48" fill="none" xmlns="http://www.w3.org/2000/svg">
<path d="M24 48C37.2548 48 48 37.2548 48 24C48 10.7452 37.2548 0 24 0C10.7452 0 0 10.7452 0 24C0 37.2548 10.7452 48 24 48Z" fill="white"/>
<path d="M35.643 16.937C34.808 17.307 33.911 17.557 32.968 17.67C33.941 17.0878 34.669 16.1715 35.016 15.092C34.1019 15.635 33.1014 16.0172 32.058 16.222C31.3564 15.4729 30.4271 14.9763 29.4143 14.8095C28.4016 14.6426 27.3621 14.8148 26.4572 15.2993C25.5524 15.7837 24.8328 16.5534 24.4102 17.4887C23.9875 18.4241 23.8855 19.4728 24.12 20.472C22.2677 20.379 20.4556 19.8976 18.8014 19.0589C17.1472 18.2203 15.6879 17.0432 14.518 15.604C14.118 16.294 13.888 17.094 13.888 17.946C13.8876 18.713 14.0764 19.4683 14.4379 20.1447C14.7993 20.8212 15.3222 21.3981 15.96 21.824C15.2203 21.8005 14.4969 21.6006 13.85 21.241V21.301C13.8499 22.3768 14.222 23.4194 14.9032 24.252C15.5843 25.0846 16.5326 25.6559 17.587 25.869C16.9008 26.0547 16.1813 26.0821 15.483 25.949C15.7805 26.8746 16.36 27.684 17.1404 28.2639C17.9208 28.8438 18.8629 29.1652 19.835 29.183C18.1848 30.4784 16.1469 31.1811 14.049 31.178C13.6774 31.1781 13.3061 31.1564 12.937 31.113C15.0665 32.4822 17.5454 33.2088 20.077 33.206C28.647 33.206 33.332 26.108 33.332 19.952C33.332 19.752 33.327 19.55 33.318 19.35C34.2293 18.691 35.0159 17.8749 35.641 16.94L35.643 16.937Z" fill="#F178B6"/>
</svg>
